<svg width="20" height="20" viewBox="0 0 20 20" fill="none" xmlns="http://www.w3.org/2000/svg">
<g clip-path="url(#clip0_2726_7455)">
<path d="M6.66576 15.4179L6.66576 15.0012V14.5846V14.1679V13.7512V13.29C6.66576 13.29 6.66576 12.8093 6.66576 12.5012C6.66576 12.3385 6.66576 12.2473 6.66576 12.0846C6.66576 11.7591 6.66576 10.4179 6.66576 10.4179C6.66576 10.4179 6.66576 10.4179 6.66576 9.39557V8.21223C7.52892 7.8663 8.28037 7.28974 8.83798 6.54557C9.88243 5.15112 11.2213 1.48446 11.2324 1.45112C11.2814 1.32299 11.3759 1.21749 11.498 1.15492C11.6201 1.09235 11.7609 1.07715 11.8935 1.11223C12.638 1.32334 13.888 2.00112 13.888 3.33446V7.7789H18.3324C18.4798 7.7789 18.6211 7.83743 18.7253 7.94162C18.8294 8.04581 18.888 8.18711 18.888 8.33446C18.9313 10.147 18.6683 11.9539 18.1102 13.6789C17.0602 16.6789 15.8324 17.6456 15.7769 17.69C15.6799 17.7653 15.5607 17.8063 15.438 17.8067H11.8713C10.5213 17.8067 8.23243 16.6956 6.66576 15.79V15.4179Z" fill="#6FCF59"/>
<path d="M1.11024 17.2227H4.99913C5.14647 17.2227 5.28778 17.1641 5.39197 17.0599C5.49616 16.9558 5.55469 16.8144 5.55469 16.6671V7.77821C5.55469 7.63087 5.49616 7.48956 5.39197 7.38537C5.28778 7.28119 5.14647 7.22266 4.99913 7.22266H1.11024V17.2227Z" fill="#6FCF59"/>
</g>
<defs>
<clipPath id="clip0_2726_7455">
<rect width="20" height="20" fill="white" transform="matrix(-1 0 0 1 20 0)"/>
</clipPath>
</defs>
</svg>
