<svg width="25" height="24" viewBox="0 0 25 24" fill="none" xmlns="http://www.w3.org/2000/svg">
<g id="icon_down">
<path id="Vector" d="M19.4306 9.28054L13.0674 16.7801C13.0083 16.8498 12.9381 16.9051 12.8609 16.9428C12.7836 16.9806 12.7008 17 12.6172 17C12.5336 17 12.4508 16.9806 12.3735 16.9428C12.2963 16.9051 12.2261 16.8498 12.167 16.7801L5.80381 9.28054C5.71472 9.17566 5.65404 9.04198 5.62944 8.89642C5.60485 8.75087 5.61745 8.59999 5.66565 8.46288C5.71386 8.32577 5.79549 8.2086 5.90023 8.1262C6.00496 8.0438 6.12808 7.99988 6.25401 8H18.9804C19.1063 7.99988 19.2294 8.0438 19.3342 8.1262C19.4389 8.2086 19.5205 8.32577 19.5687 8.46288C19.6169 8.59999 19.6295 8.75087 19.6049 8.89642C19.5803 9.04198 19.5197 9.17566 19.4306 9.28054Z" fill="black"/>
</g>
</svg>
