<svg width="154" height="22" viewBox="0 0 154 22" fill="none" xmlns="http://www.w3.org/2000/svg">
<g clip-path="url(#clip0_2794_7391)">
<path d="M14.9272 17.7914V20.5139C13.1846 21.5039 11.1718 21.9989 8.90228 21.9989C7.05158 21.9989 5.48456 21.6139 4.18772 20.8439C2.89088 20.0739 1.87772 19.0014 1.12123 17.6402C0.364737 16.2789 0 14.8077 0 13.2264C0 10.7102 0.864561 8.60641 2.58018 6.88766C4.29579 5.16891 6.41667 4.31641 8.94281 4.31641C10.6854 4.31641 12.6172 4.78391 14.7516 5.73266V8.38641C12.8198 7.23141 10.9151 6.65391 9.06439 6.65391C7.21368 6.65391 5.59263 7.27266 4.33632 8.52391C3.08 9.77516 2.4586 11.3427 2.4586 13.2127C2.4586 15.0827 3.08 16.6639 4.3093 17.8877C5.5386 19.1114 7.11912 19.7164 9.05088 19.7164C10.9826 19.7164 13.0225 19.0702 14.9407 17.7914H14.9272Z" fill="black"/>
<path d="M25.4096 4.44141H23.748L16.6289 21.8076H19.0605L21.1408 16.6789L22.0729 14.4789L24.5586 8.2364L27.2333 14.4789L28.2059 16.6789L30.4214 21.8076H32.8529L25.4096 4.44141Z" fill="#6FCF59"/>
<path d="M47.8478 4.53906H50.0632V21.8091H47.6722V8.37531L42.5794 15.0441H42.1336L36.9732 8.37531V21.8091H34.5957V4.53906H36.8382L42.3497 11.6341L47.8208 4.53906H47.8478Z" fill="black"/>
<path d="M53.5086 21.8092V4.51172H58.7635C60.3441 4.51172 61.6139 4.95172 62.546 5.84547C63.4781 6.73922 63.9644 7.93547 63.9644 9.43422C63.9644 10.438 63.7213 11.3317 63.2349 12.1017C62.7486 12.8717 62.0867 13.4355 61.2492 13.793C60.4116 14.1505 59.2093 14.3155 57.6423 14.3155H55.8862V21.8092H53.4951H53.5086ZM58.3448 6.71172H55.8862V12.1155H58.4799C59.439 12.1155 60.1955 11.8817 60.7088 11.4005C61.2356 10.933 61.4923 10.2455 61.4923 9.36547C61.4923 7.59172 60.4386 6.71172 58.3313 6.71172H58.3448Z" fill="black"/>
<path d="M66.0312 4.53906H75.4334V6.73906H68.4088V12.0053H75.1902V14.2191H68.4088V19.5816H75.663V21.7816H66.0448V4.53906H66.0312Z" fill="black"/>
<path d="M78.2565 21.8091V4.53906H82.4037C84.0788 4.53906 85.4162 4.96531 86.4023 5.83156C87.3884 6.69781 87.8748 7.86656 87.8748 9.33781C87.8748 10.3416 87.6316 11.2078 87.1453 11.9503C86.659 12.6928 85.97 13.2291 85.0649 13.6003C85.5918 13.9578 86.1186 14.4528 86.6184 15.0853C87.1183 15.7178 87.8342 16.8041 88.7528 18.3578C89.3337 19.3341 89.793 20.0766 90.1442 20.5716L91.0223 21.8091H88.199L87.483 20.6678C87.483 20.6678 87.4155 20.5578 87.3344 20.4616L86.8751 19.7878L86.1456 18.5228L85.3486 17.1753C84.8623 16.4603 84.4165 15.8966 83.9977 15.4841C83.5925 15.0578 83.2277 14.7553 82.89 14.5766C82.5658 14.3978 82.0119 14.3016 81.2284 14.3016H80.607V21.8228H78.2295L78.2565 21.8091ZM81.3365 6.64281H80.6205V12.0878H81.5256C82.7279 12.0878 83.5519 11.9778 83.9977 11.7716C84.4435 11.5653 84.7948 11.2353 85.0379 10.7953C85.2946 10.3553 85.4162 9.87406 85.4162 9.32406C85.4162 8.77406 85.2811 8.29281 84.9974 7.85281C84.7272 7.41281 84.3355 7.09656 83.8221 6.91781C83.3088 6.73906 82.4848 6.64281 81.323 6.64281H81.3365Z" fill="black"/>
<path d="M103.721 14.5603L101.91 13.4191C100.776 12.7041 99.9786 11.9891 99.4923 11.2878C99.0195 10.5866 98.7764 9.78906 98.7764 8.88156C98.7764 7.52031 99.2221 6.42031 100.141 5.56781C101.059 4.71531 102.221 4.28906 103.667 4.28906C105.112 4.28906 106.314 4.68781 107.476 5.49906V8.30406C106.287 7.10781 104.99 6.50281 103.613 6.50281C102.842 6.50281 102.194 6.69531 101.708 7.06656C101.221 7.43781 100.965 7.91906 100.965 8.49656C100.965 9.01906 101.154 9.50031 101.519 9.95406C101.883 10.4078 102.478 10.8753 103.288 11.3703L105.098 12.4841C107.125 13.7353 108.124 15.3441 108.124 17.2828C108.124 18.6716 107.679 19.7853 106.787 20.6516C105.895 21.5178 104.734 21.9441 103.315 21.9441C101.681 21.9441 100.181 21.4216 98.8439 20.3766V17.2416C100.127 18.9328 101.613 19.7716 103.288 19.7716C104.031 19.7716 104.653 19.5516 105.152 19.1253C105.652 18.6991 105.895 18.1491 105.895 17.5028C105.895 16.4578 105.166 15.4541 103.707 14.5053L103.721 14.5603Z" fill="black"/>
<path d="M110.61 21.8092V4.51172H115.865C117.446 4.51172 118.715 4.95172 119.648 5.84547C120.58 6.73922 121.066 7.93547 121.066 9.43422C121.066 10.438 120.823 11.3317 120.337 12.1017C119.85 12.8717 119.188 13.4355 118.351 13.793C117.513 14.1505 116.311 14.3155 114.744 14.3155H112.988V21.8092H110.597H110.61ZM115.446 6.71172H112.988V12.1155H115.581C116.541 12.1155 117.297 11.8817 117.81 11.4005C118.337 10.933 118.594 10.2455 118.594 9.36547C118.594 7.59172 117.54 6.71172 115.433 6.71172H115.446Z" fill="black"/>
<path d="M131.265 4.28906C133.832 4.28906 135.952 5.12781 137.668 6.81906C139.384 8.51031 140.221 10.6278 140.221 13.1716C140.221 15.7153 139.357 17.8191 137.641 19.4966C135.925 21.1603 133.751 21.9991 131.13 21.9991C128.509 21.9991 126.55 21.1603 124.889 19.4966C123.227 17.8328 122.39 15.7428 122.39 13.2266C122.39 10.7103 123.227 8.51031 124.902 6.81906C126.577 5.12781 128.698 4.28906 131.265 4.28906ZM131.359 6.64031C129.468 6.64031 127.901 7.25906 126.685 8.49656C125.47 9.73406 124.848 11.3153 124.848 13.2266C124.848 15.1378 125.456 16.6366 126.685 17.8741C127.915 19.1116 129.441 19.7303 131.292 19.7303C133.143 19.7303 134.683 19.0978 135.925 17.8328C137.168 16.5678 137.776 15.0003 137.776 13.1303C137.776 11.2603 137.155 9.76156 135.925 8.51031C134.683 7.25906 133.17 6.64031 131.373 6.64031H131.359Z" fill="black"/>
<path d="M140.153 4.51172H154V6.71172H148.218V21.8092H145.827V6.71172H140.14V4.51172H140.153Z" fill="black"/>
<path d="M24.559 8.23625L20.8711 0H23.5593L25.41 4.44125" fill="#6FCF59"/>
<path d="M24.4915 8.23625L28.1794 0H25.4777L23.627 4.44125" fill="#6FCF59"/>
<path d="M24.9104 21.0941C25.6565 21.0941 26.2613 20.4661 26.2613 19.6916C26.2613 18.917 25.6565 18.2891 24.9104 18.2891C24.1644 18.2891 23.5596 18.917 23.5596 19.6916C23.5596 20.4661 24.1644 21.0941 24.9104 21.0941Z" fill="#6FCF59"/>
<path d="M127.536 13.3656L130.238 16.1706L135.628 10.5469" stroke="#6FCF59" stroke-width="2" stroke-miterlimit="10"/>
</g>
<defs>
<clipPath id="clip0_2794_7391">
<rect width="154" height="22" fill="white"/>
</clipPath>
</defs>
</svg>
