<svg width="24" height="24" viewBox="0 0 24 24" fill="none" xmlns="http://www.w3.org/2000/svg">
<rect width="24" height="24" fill="#F5F5F5"/>
<g id="&#235;&#148;&#148;&#236;&#158;&#144;&#236;&#157;&#184;">
<path d="M-6267 -20255C-6267 -20256.1 -6266.1 -20257 -6265 -20257H7747C7748.1 -20257 7749 -20256.1 7749 -20255V3793C7749 3794.11 7748.1 3795 7747 3795H-6265C-6266.1 3795 -6267 3794.11 -6267 3793V-20255Z" fill="#EDEAFF"/>
<path d="M-6265 -20256H7747V-20258H-6265V-20256ZM7748 -20255V3793H7750V-20255H7748ZM7747 3794H-6265V3796H7747V3794ZM-6266 3793V-20255H-6268V3793H-6266ZM-6265 3794C-6265.55 3794 -6266 3793.55 -6266 3793H-6268C-6268 3794.66 -6266.66 3796 -6265 3796V3794ZM7748 3793C7748 3793.55 7747.55 3794 7747 3794V3796C7748.66 3796 7750 3794.66 7750 3793H7748ZM7747 -20256C7747.55 -20256 7748 -20255.6 7748 -20255H7750C7750 -20256.7 7748.66 -20258 7747 -20258V-20256ZM-6265 -20258C-6266.66 -20258 -6268 -20256.7 -6268 -20255H-6266C-6266 -20255.6 -6265.55 -20256 -6265 -20256V-20258Z" fill="black" fill-opacity="0.1"/>
<g id="user_mypage">
<rect width="1920" height="1907" transform="translate(-1079 -454)" fill="white"/>
<rect id="Rectangle 567" x="-414" y="-178" width="892" height="878" rx="32" fill="#F5F5F5"/>
<g id="mdi:pencil">
<path id="Vector" d="M20.71 7.03859C21.1 6.64859 21.1 5.99859 20.71 5.62859L18.37 3.28859C18 2.89859 17.35 2.89859 16.96 3.28859L15.12 5.11859L18.87 8.86859M3 17.2486V20.9986H6.75L17.81 9.92859L14.06 6.17859L3 17.2486Z" fill="black"/>
</g>
</g>
</g>
</svg>
